<?xml version='1.0' encoding='iso-8859-1'?>
<svg version="1.1" xmlns="http://www.w3.org/2000/svg" viewBox="0 0 137.144 137.144" xmlns:xlink="http://www.w3.org/1999/xlink" enable-background="new 0 0 137.144 137.144">
  <g>
    <g>
      <path d="m41.144,27.429c-7.574,0-13.714,6.14-13.714,13.715 0,7.575 6.14,13.715 13.714,13.715 2.01,0 3.904-0.456 5.624-1.233l21.804,21.804v27.429h-13.714v6.857h34.286v-6.857h-13.715v-27.429l34.286-34.287h-54.857c0-7.574-6.14-13.714-13.714-13.714zm42.214,27.429h-23.572l-6.857-6.857h38.358l-7.929,6.857zm26.357-54.858h-82.286c-15.149,0-27.429,12.28-27.429,27.429v82.286c0,15.149 12.28,27.429 27.429,27.429h82.286c15.149,0 27.429-12.28 27.429-27.429v-82.286c0-15.149-12.28-27.429-27.429-27.429zm13.715,102.858c0,11.361-9.21,20.572-20.571,20.572h-68.573c-11.361,0-20.572-9.21-20.572-20.572v-68.572c0-11.361 9.21-20.571 20.572-20.571h68.572c11.361,0 20.571,9.21 20.571,20.571v68.572z"/>
    </g>
  </g>
</svg>
